<svg xmlns="http://www.w3.org/2000/svg" width="550" height="550" viewBox="0 0 550 550" version="1.1"><path d="M 13 250.577 C 13 251.444, 14.315 253.469, 15.923 255.077 L 18.846 258 44.923 258 L 71 258 71 253.500 L 71 249 42 249 C 16.260 249, 13 249.177, 13 250.577 M 77 276.450 L 77 304 81.974 304 L 86.948 304 87.224 288.750 L 87.500 273.500 94.146 286.500 C 101.757 301.389, 104.255 304.294, 109.040 303.822 C 115.357 303.198, 115.088 302.201, 101.268 274.978 L 88.333 249.500 82.667 249.200 L 77 248.900 77 276.450 M 123.574 264.969 L 115.649 280.859 118.275 286.663 C 119.719 289.855, 121.290 292.597, 121.767 292.756 C 122.243 292.914, 124.796 288.534, 127.440 283.022 C 130.084 277.510, 132.634 273, 133.106 273 C 133.579 273, 133.678 279.975, 133.326 288.500 L 132.687 304 137.843 304 L 143 304 143 276.500 L 143 249 137.250 249.039 L 131.500 249.079 123.574 264.969 M 159.740 275.751 C 153.821 290.463, 148.984 302.837, 148.990 303.250 C 148.995 303.663, 156.618 304, 165.929 304 L 182.858 304 186.429 300.632 C 188.766 298.428, 190 296.354, 190 294.632 L 190 292 178.559 292 C 172.266 292, 166.872 291.602, 166.571 291.115 C 165.995 290.182, 177.381 261.451, 179.191 259.270 C 180.499 257.694, 185.634 257.599, 186.582 259.132 C 186.967 259.755, 191.222 269.993, 196.037 281.882 L 204.793 303.500 210.997 303.800 C 214.555 303.973, 217.051 303.702, 216.850 303.166 C 216.658 302.652, 211.775 290.269, 206 275.649 L 195.500 249.066 183 249.034 L 170.500 249.001 159.740 275.751 M 224 249.644 C 224 249.998, 228.275 256.008, 233.500 263 C 238.725 269.992, 243 276.043, 243 276.447 C 243 276.850, 238.725 282.759, 233.500 289.577 C 228.275 296.395, 224 302.429, 224 302.986 C 224 304.589, 237.677 304.284, 238.297 302.668 C 238.814 301.321, 254.428 280.472, 269.686 260.756 C 274.259 254.847, 278 249.785, 278 249.506 C 278 249.228, 275.131 249, 271.625 249 L 265.250 249 259.061 257 C 255.657 261.400, 252.257 265, 251.504 265 C 250.751 265, 246.869 261.400, 242.877 257 L 235.618 249 229.809 249 C 226.614 249, 224 249.290, 224 249.644 M 289.923 251.923 C 284.055 257.791, 284.680 258, 308.077 258 L 329.154 258 332.077 255.077 C 337.945 249.209, 337.320 249, 313.923 249 L 292.846 249 289.923 251.923 M 351.032 250.750 C 351.072 252.973, 352.887 255.347, 355.684 256.837 C 357.116 257.599, 364.184 258, 376.212 258 C 400.481 258, 399 256.895, 399 275 C 399 292.818, 399.914 292, 380 292 C 360.952 292, 361 292.030, 361 280.066 C 361 270.107, 360.181 268.667, 354.815 269.182 L 351.500 269.500 351.217 280.202 C 350.876 293.054, 352.038 296.566, 358.073 300.938 L 362.300 304 379.900 303.967 C 397.426 303.934, 397.517 303.922, 401.500 301.190 C 408.212 296.587, 408.997 293.880, 408.998 275.315 C 409 258.598, 408.388 255.124, 404.759 251.250 C 402.679 249.029, 402.317 249, 376.826 249 C 352.884 249, 351.002 249.128, 351.032 250.750 M 418.589 252.077 C 413.573 258.037, 413.431 258, 441.250 257.996 C 464.658 257.993, 466.737 257.848, 469.750 256.011 C 471.538 254.921, 473 253.610, 473 253.096 C 473 252.583, 473.273 251.452, 473.607 250.582 C 474.151 249.164, 471.466 249, 447.696 249 L 421.178 249 418.589 252.077 M 480 250.577 C 480 251.444, 481.315 253.469, 482.923 255.077 L 485.846 258 511.923 258 L 538 258 538 253.500 L 538 249 509 249 C 483.260 249, 480 249.177, 480 250.577 M 37.714 269.620 C 37.321 270.012, 37 277.908, 37 287.167 L 37 304 42.024 304 L 47.047 304 46.774 286.750 L 46.500 269.500 42.464 269.203 C 40.244 269.040, 38.106 269.227, 37.714 269.620 M 287.115 269.862 C 285.305 271.068, 286.349 275.315, 289.081 277.861 C 292.032 280.610, 295.185 281, 314.470 281 C 329.882 281, 331.864 281.192, 333.345 282.829 C 335.373 285.070, 335.442 287.013, 333.582 289.559 C 332.271 291.355, 330.460 291.537, 309.332 292 L 286.500 292.500 286.200 298.250 L 285.900 304 309.933 304 L 333.965 304 338.385 299.750 C 347.313 291.165, 346.571 278.927, 336.679 271.592 C 334.041 269.636, 332.384 269.482, 311.179 269.219 C 298.457 269.062, 287.892 269.344, 287.115 269.862 M 416.250 269.662 C 415.319 270.038, 415 274.486, 415 287.083 L 415 304 420 304 L 425 304 425 292.586 L 425 281.172 441.297 280.836 C 459.083 280.469, 462.323 279.547, 463.592 274.490 C 464.973 268.988, 464.996 268.993, 440.281 269.079 C 427.752 269.122, 416.938 269.385, 416.250 269.662 M 504.714 269.620 C 504.321 270.012, 504 277.908, 504 287.167 L 504 304 509.024 304 L 514.047 304 513.774 286.750 L 513.500 269.500 509.464 269.203 C 507.244 269.040, 505.106 269.227, 504.714 269.620 M 259.250 287.612 C 258.012 289.552, 257 291.760, 257 292.519 C 257 293.278, 258.688 296.171, 260.750 298.949 L 264.500 303.998 271.250 303.999 C 274.962 304, 278 303.690, 278 303.312 C 278 301.882, 263.765 284.002, 262.658 284.042 C 262.021 284.066, 260.488 285.672, 259.250 287.612" stroke="none" fill="#2a2afa" fill-rule="evenodd"/><path d="M 0 275.002 L 0 550.004 275.250 549.752 L 550.500 549.500 550.752 274.750 L 551.004 0 275.502 0 L 0 0 0 275.002 M 0.493 275.500 C 0.493 426.750, 0.609 488.476, 0.750 412.669 C 0.891 336.862, 0.891 213.112, 0.750 137.669 C 0.609 62.226, 0.493 124.250, 0.493 275.500 M 13 250.577 C 13 251.444, 14.315 253.469, 15.923 255.077 L 18.846 258 44.923 258 L 71 258 71 253.500 L 71 249 42 249 C 16.260 249, 13 249.177, 13 250.577 M 77 276.450 L 77 304 81.974 304 L 86.948 304 87.224 288.750 L 87.500 273.500 94.146 286.500 C 101.757 301.389, 104.255 304.294, 109.040 303.822 C 115.357 303.198, 115.088 302.201, 101.268 274.978 L 88.333 249.500 82.667 249.200 L 77 248.900 77 276.450 M 123.574 264.969 L 115.649 280.859 118.275 286.663 C 119.719 289.855, 121.290 292.597, 121.767 292.756 C 122.243 292.914, 124.796 288.534, 127.440 283.022 C 130.084 277.510, 132.634 273, 133.106 273 C 133.579 273, 133.678 279.975, 133.326 288.500 L 132.687 304 137.843 304 L 143 304 143 276.500 L 143 249 137.250 249.039 L 131.500 249.079 123.574 264.969 M 159.740 275.751 C 153.821 290.463, 148.984 302.837, 148.990 303.250 C 148.995 303.663, 156.618 304, 165.929 304 L 182.858 304 186.429 300.632 C 188.766 298.428, 190 296.354, 190 294.632 L 190 292 178.559 292 C 172.266 292, 166.872 291.602, 166.571 291.115 C 165.995 290.182, 177.381 261.451, 179.191 259.270 C 180.499 257.694, 185.634 257.599, 186.582 259.132 C 186.967 259.755, 191.222 269.993, 196.037 281.882 L 204.793 303.500 210.997 303.800 C 214.555 303.973, 217.051 303.702, 216.850 303.166 C 216.658 302.652, 211.775 290.269, 206 275.649 L 195.500 249.066 183 249.034 L 170.500 249.001 159.740 275.751 M 224 249.644 C 224 249.998, 228.275 256.008, 233.500 263 C 238.725 269.992, 243 276.043, 243 276.447 C 243 276.850, 238.725 282.759, 233.500 289.577 C 228.275 296.395, 224 302.429, 224 302.986 C 224 304.589, 237.677 304.284, 238.297 302.668 C 238.814 301.321, 254.428 280.472, 269.686 260.756 C 274.259 254.847, 278 249.785, 278 249.506 C 278 249.228, 275.131 249, 271.625 249 L 265.250 249 259.061 257 C 255.657 261.400, 252.257 265, 251.504 265 C 250.751 265, 246.869 261.400, 242.877 257 L 235.618 249 229.809 249 C 226.614 249, 224 249.290, 224 249.644 M 289.923 251.923 C 284.055 257.791, 284.680 258, 308.077 258 L 329.154 258 332.077 255.077 C 337.945 249.209, 337.320 249, 313.923 249 L 292.846 249 289.923 251.923 M 351.032 250.750 C 351.072 252.973, 352.887 255.347, 355.684 256.837 C 357.116 257.599, 364.184 258, 376.212 258 C 400.481 258, 399 256.895, 399 275 C 399 292.818, 399.914 292, 380 292 C 360.952 292, 361 292.030, 361 280.066 C 361 270.107, 360.181 268.667, 354.815 269.182 L 351.500 269.500 351.217 280.202 C 350.876 293.054, 352.038 296.566, 358.073 300.938 L 362.300 304 379.900 303.967 C 397.426 303.934, 397.517 303.922, 401.500 301.190 C 408.212 296.587, 408.997 293.880, 408.998 275.315 C 409 258.598, 408.388 255.124, 404.759 251.250 C 402.679 249.029, 402.317 249, 376.826 249 C 352.884 249, 351.002 249.128, 351.032 250.750 M 418.589 252.077 C 413.573 258.037, 413.431 258, 441.250 257.996 C 464.658 257.993, 466.737 257.848, 469.750 256.011 C 471.538 254.921, 473 253.610, 473 253.096 C 473 252.583, 473.273 251.452, 473.607 250.582 C 474.151 249.164, 471.466 249, 447.696 249 L 421.178 249 418.589 252.077 M 480 250.577 C 480 251.444, 481.315 253.469, 482.923 255.077 L 485.846 258 511.923 258 L 538 258 538 253.500 L 538 249 509 249 C 483.260 249, 480 249.177, 480 250.577 M 37.714 269.620 C 37.321 270.012, 37 277.908, 37 287.167 L 37 304 42.024 304 L 47.047 304 46.774 286.750 L 46.500 269.500 42.464 269.203 C 40.244 269.040, 38.106 269.227, 37.714 269.620 M 287.115 269.862 C 285.305 271.068, 286.349 275.315, 289.081 277.861 C 292.032 280.610, 295.185 281, 314.470 281 C 329.882 281, 331.864 281.192, 333.345 282.829 C 335.373 285.070, 335.442 287.013, 333.582 289.559 C 332.271 291.355, 330.460 291.537, 309.332 292 L 286.500 292.500 286.200 298.250 L 285.900 304 309.933 304 L 333.965 304 338.385 299.750 C 347.313 291.165, 346.571 278.927, 336.679 271.592 C 334.041 269.636, 332.384 269.482, 311.179 269.219 C 298.457 269.062, 287.892 269.344, 287.115 269.862 M 416.250 269.662 C 415.319 270.038, 415 274.486, 415 287.083 L 415 304 420 304 L 425 304 425 292.586 L 425 281.172 441.297 280.836 C 459.083 280.469, 462.323 279.547, 463.592 274.490 C 464.973 268.988, 464.996 268.993, 440.281 269.079 C 427.752 269.122, 416.938 269.385, 416.250 269.662 M 504.714 269.620 C 504.321 270.012, 504 277.908, 504 287.167 L 504 304 509.024 304 L 514.047 304 513.774 286.750 L 513.500 269.500 509.464 269.203 C 507.244 269.040, 505.106 269.227, 504.714 269.620 M 259.250 287.612 C 258.012 289.552, 257 291.760, 257 292.519 C 257 293.278, 258.688 296.171, 260.750 298.949 L 264.500 303.998 271.250 303.999 C 274.962 304, 278 303.690, 278 303.312 C 278 301.882, 263.765 284.002, 262.658 284.042 C 262.021 284.066, 260.488 285.672, 259.250 287.612" stroke="none" fill="#fbfbfb" fill-rule="evenodd"/></svg>
